<?xml version="1.0" ?><svg height="64" viewBox="0 0 64 64" width="64" xmlns="http://www.w3.org/2000/svg"><title/><g><g><g><path d="M22.931,25.547A3.181,3.181,0,0,1,19.9,22.235a3.182,3.182,0,0,1,3.034-3.312" fill="#e5c7b7"/><path d="M22.931,25.547A3.181,3.181,0,0,1,19.9,22.235a3.182,3.182,0,0,1,3.034-3.312" fill="none" stroke="#231f20" stroke-linecap="round" stroke-linejoin="round" stroke-width="2"/></g><g><path d="M41.069,25.547A3.181,3.181,0,0,0,44.1,22.235a3.182,3.182,0,0,0-3.034-3.312" fill="#e5c7b7"/><path d="M41.069,25.547A3.181,3.181,0,0,0,44.1,22.235a3.182,3.182,0,0,0-3.034-3.312" fill="none" stroke="#231f20" stroke-linecap="round" stroke-linejoin="round" stroke-width="2"/></g></g><g><path d="M24.459,37.784l-3.878,1.153a8,8,0,0,0-5.651,6.622L13.293,57.965H25.806a19.668,19.668,0,0,1-3.594-11.212A19.245,19.245,0,0,1,24.459,37.784Z" fill="#55c467"/><path d="M50.707,57.965,49.07,45.559a8,8,0,0,0-5.651-6.622L32,35.541l-7.541,2.243a19.245,19.245,0,0,0-2.247,8.969,19.668,19.668,0,0,0,3.594,11.212h24.9Z" fill="#64cc7a"/></g><path d="M43.419,38.937,32,35.541l-11.419,3.4a8,8,0,0,0-5.651,6.622L13.293,57.965H50.707L49.07,45.559A8,8,0,0,0,43.419,38.937Z" fill="none" stroke="#231f20" stroke-linecap="round" stroke-linejoin="round" stroke-width="2"/><g><path d="M30.829,35.724V31.358H28v4.366a3.975,3.975,0,0,0,5.415,3.73A3.99,3.99,0,0,1,30.829,35.724Z" fill="#e5c7b7"/><path d="M36,35.724V31.358H30.829v4.366a3.99,3.99,0,0,0,2.586,3.73A3.99,3.99,0,0,0,36,35.724Z" fill="#f9dbc8"/></g><path d="M28,31.358h8a0,0,0,0,1,0,0v4.366a4,4,0,0,1-4,4h0a4,4,0,0,1-4-4V31.358A0,0,0,0,1,28,31.358Z" fill="none" stroke="#231f20" stroke-linecap="round" stroke-linejoin="round" stroke-width="2"/><line fill="none" stroke="#231f20" stroke-linecap="round" stroke-linejoin="round" stroke-width="2" x1="32" x2="32" y1="42.856" y2="57.965"/><g><line fill="none" stroke="#231f20" stroke-linecap="round" stroke-linejoin="round" stroke-width="2" x1="19.717" x2="19.717" y1="51.14" y2="57.965"/><line fill="none" stroke="#231f20" stroke-linecap="round" stroke-linejoin="round" stroke-width="2" x1="44.283" x2="44.283" y1="51.14" y2="57.965"/></g><g><path d="M25.6,37.864A3.774,3.774,0,0,0,29.171,42" fill="none" stroke="#231f20" stroke-linecap="round" stroke-linejoin="round" stroke-width="2"/><path d="M38.4,37.864A3.774,3.774,0,0,1,34.829,42" fill="none" stroke="#231f20" stroke-linecap="round" stroke-linejoin="round" stroke-width="2"/></g><g><path d="M27.111,22.445v-8a6.419,6.419,0,0,1,1.8-4.7c-3.386.778-5.8,2.952-5.8,6.775v8a8.878,8.878,0,0,0,14.836,6.593,8.868,8.868,0,0,1-10.836-8.668Z" fill="#e5c7b7"/><path d="M40.889,24.52v-8c0-4.909-3.98-7.111-8.889-7.111a13.812,13.812,0,0,0-3.085.336,6.419,6.419,0,0,0-1.8,4.7v8a8.868,8.868,0,0,0,10.836,8.668A8.856,8.856,0,0,0,40.889,24.52Z" fill="#f9dbc8"/></g><path d="M32,33.409h0a8.889,8.889,0,0,1-8.889-8.889v-8c0-4.909,3.98-7.111,8.889-7.111h0c4.909,0,8.889,2.2,8.889,7.111v8A8.889,8.889,0,0,1,32,33.409Z" fill="none" stroke="#231f20" stroke-linecap="round" stroke-linejoin="round" stroke-width="2"/><g><path d="M30.758,5.761H26.912c-3.7,0-6.693,2.578-6.693,5.756l.314,6.1A2.838,2.838,0,0,0,21,19.038l2.111,3.2,0-5.893a20.281,20.281,0,0,0,4.095-3.225A9.938,9.938,0,0,1,30.758,5.761Z" fill="#ad806f"/><path d="M40.886,16.844l0,6.128,1.3-2.553a10.669,10.669,0,0,0,1.152-4.3l.236-4.6c0-3.178-3-5.756-6.693-5.756h-6.13a9.938,9.938,0,0,0-3.55,7.356,3.891,3.891,0,0,0,.573-.841S31.471,16.844,40.886,16.844Z" fill="#bb917f"/></g><path d="M27.781,12.276s3.69,4.568,13.105,4.568l0,6.128,1.3-2.553a10.669,10.669,0,0,0,1.152-4.3l.236-4.6c0-3.178-3-5.756-6.693-5.756H26.912c-3.7,0-6.693,2.578-6.693,5.756l.314,6.1A2.838,2.838,0,0,0,21,19.038l2.111,3.2,0-5.893S26.952,14.052,27.781,12.276Z" fill="none" stroke="#231f20" stroke-linecap="round" stroke-linejoin="round" stroke-width="2"/><circle cx="35.807" cy="46.897" fill="#231f20" r="0.978"/><circle cx="35.807" cy="51.78" fill="#231f20" r="0.978"/><path d="M30.481,27.6a3.1,3.1,0,0,0,3.12,0" fill="none" stroke="#231f20" stroke-linecap="round" stroke-linejoin="round" stroke-width="2"/></g></svg>